#!OML:ASF F:\VICON\USERDATA\INSTALL\rory3\rory3.ASF
:FULLY-SPECIFIED
:DEGREES
442
root 4.13069 14.6515 -16.6253 -362.04 -49.3816 361.285
lowerback 19.041 -2.59081 -6.21763
upperback -0.246069 -4.52693 3.06789
thorax -10.231 -1.74601 8.18764
lowerneck -13.6413 -2.69527 0.605902
upperneck 19.2277 -3.79373 -0.875447
head 8.18187 -1.88525 -0.813868
rclavicle -5.84924e-014 -5.56597e-015
rhumerus 23.2315 -24.0381 -33.3498
rradius 26.6474
rwrist 10.6735
rhand 23.3685 8.5853
rfingers 7.12502
rthumb 47.6592 -13.785
lclavicle -5.84924e-014 -5.56597e-015
lhumerus 46.5304 -43.1761 54.5817
lradius 66.7235
lwrist 84.2632
lhand 12.5876 24.9694
lfingers 7.12502
lthumb 37.5763 50.8827
rfemur -27.3413 -28.8984 -0.0518564
rtibia 56.933
rfoot -13.1104 -5.3008
rtoes -14.314
lfemur -30.6889 34.4294 -3.71785
ltibia 59.9634
lfoot -13.5929 4.77456
ltoes 1.73838
443
root 4.18717 14.7013 -16.5471 -361.977 -49.5898 361.001
lowerback 19.4764 -2.24697 -7.01751
upperback -0.486654 -4.22467 3.63133
thorax -10.7053 -1.50149 9.27602
lowerneck -13.5017 -2.62782 0.594375
upperneck 19.3987 -3.58392 -1.44296
head 8.20396 -1.84584 -0.977826
rclavicle 5.17834e-014 -1.35174e-014
rhumerus 23.3125 -23.6278 -32.6721
rradius 26.5691
rwrist 10.8792
rhand 23.9393 9.51079
rfingers 7.12502
rthumb 48.1856 -12.615
lclavicle 5.17834e-014 -1.35174e-014
lhumerus 45.4776 -42.5035 56.1531
lradius 66.7449
lwrist 84.0248
lhand 12.5118 24.8628
lfingers 7.12502
lthumb 37.5046 50.7951
rfemur -26.5079 -28.4766 -0.19406
rtibia 55.7356
rfoot -12.574 -5.50357
rtoes -14.8802
lfemur -30.2462 34.825 -3.7351
ltibia 59.9142
lfoot -13.8721 4.52361
ltoes 2.25501
444
root 4.25625 14.6639 -16.4761 -362.098 -49.2812 361.36
lowerback 19.5386 -2.08622 -7.89079
upperback -0.735356 -4.17828 4.04663
thorax -10.9442 -1.38783 10.2806
lowerneck -13.7023 -2.78377 -0.204712
upperneck 19.6812 -3.5957 -1.57349
head 8.34888 -1.92388 -0.899149
rclavicle 5.09883e-014 -2.38542e-014
rhumerus 22.6372 -21.3097 -30.6433
rradius 27.3422
rwrist 7.56388
rhand 22.5226 5.5271
rfingers 7.12502
rthumb 46.8775 -17.1929
lclavicle 5.09883e-014 -2.38542e-014
lhumerus 44.5826 -41.8699 57.8512
lradius 66.7402
lwrist 83.6258
lhand 12.2325 24.8803
lfingers 7.12502
lthumb 37.2406 50.8822
rfemur -26.3816 -28.6601 -0.917388
rtibia 55.3281
rfoot -11.8646 -5.98479
rtoes -18.6323
lfemur -31.0692 34.7289 -4.6339
ltibia 60.6356
lfoot -14.3368 4.36517
ltoes 2.35421
445
root 4.31747 14.6814 -16.4219 -361.342 -49.3632 360.099
lowerback 19.2981 -2.17995 -6.38317
upperback -0.442696 -3.99435 3.47591
thorax -10.6538 -1.43795 8.65049
lowerneck -13.7134 -2.73717 0.597255
upperneck 19.5187 -3.8268 -1.01562
head 8.28924 -1.91521 -0.86836
rclavicle 9.06955e-014 -7.95139e-015
rhumerus 22.5832 -23.8887 -32.5145
rradius 26.4874
rwrist 10.8312
rhand 23.7648 9.07793
rfingers 7.12502
rthumb 48.0248 -13.1233
lclavicle 9.06955e-014 -7.95139e-015
lhumerus 45.1852 -41.7642 56.4937
lradius 66.8384
lwrist 83.3245
lhand 12.8827 24.7206
lfingers 7.12502
lthumb 37.855 50.5591
rfemur -25.6948 -27.6945 -0.226042
rtibia 54.4607
rfoot -12.0348 -6.48904
rtoes -16.2434
lfemur -31.1215 34.8499 -3.86651
ltibia 61.0038
lfoot -14.5465 3.94204
ltoes 5.01357
446
root 4.38104 14.7272 -16.3675 -361.435 -49.1603 360.205
lowerback 18.8123 -2.3467 -5.47511
upperback -0.217534 -4.07001 2.60869
thorax -10.2357 -1.58072 7.10797
lowerneck -13.8636 -2.7654 1.12386
upperneck 19.5725 -4.11622 -0.415804
head 8.33516 -1.95052 -0.79091
rclavicle -1.74434e-014 1.19271e-014
rhumerus 22.2472 -25.2622 -33.9471
rradius 26.1903
rwrist 11.9212
rhand 23.9262 9.46682
rfingers 7.12502
rthumb 48.1735 -12.6646
lclavicle -1.74434e-014 1.19271e-014
lhumerus 45.9804 -41.6939 54.6531
lradius 67.3138
lwrist 83.5669
lhand 12.322 24.9237
lfingers 7.12502
lthumb 37.3252 50.9033
rfemur -24.9008 -27.4996 -0.639273
rtibia 53.2938
rfoot -11.5133 -6.65773
rtoes -13.4308
lfemur -31.0991 34.8918 -4.45807
ltibia 60.6543
lfoot -14.5109 4.01167
ltoes 4.23297
447
root 4.43969 14.6994 -16.2982 -361.199 -49.3446 359.695
lowerback 18.2687 -2.40218 -4.17156
upperback 0.0700824 -3.91036 1.83993
thorax -9.7727 -1.62223 5.4105
lowerneck -14.0066 -2.67886 2.41672
upperneck 19.5158 -4.32271 -0.285124
head 8.3158 -1.93959 -0.984496
rclavicle -1.83627e-014 4.77083e-015
rhumerus 21.5658 -25.5385 -34.7679
rradius 26.2226
rwrist 10.9283
rhand 23.565 7.87777
rfingers 7.12502
rthumb 47.8405 -14.4091
lclavicle -1.83627e-014 4.77083e-015
lhumerus 46.592 -41.5334 53.3286
lradius 67.4565
lwrist 83.4504
lhand 11.8678 25.1057
lfingers 7.12502
lthumb 36.8956 51.197
rfemur -24.5978 -26.718 -0.615182
rtibia 52.7354
rfoot -11.0751 -7.28906
rtoes -15.3211
lfemur -31.2148 35.218 -4.23838
ltibia 61.2267
lfoot -14.922 3.64309
ltoes 4.88189
448
root 4.50608 14.7035 -16.2393 -361.51 -49.0148 360.283
lowerback 17.6872 -2.60915 -3.69387
upperback 0.234174 -4.1417 0.995
thorax -9.33543 -1.79763 4.22131
lowerneck -13.952 -2.72814 2.66627
upperneck 19.2774 -4.58688 0.400915
head 8.23682 -1.98041 -0.822043
rclavicle 2.50376e-014 6.36111e-015
rhumerus 21.8356 -27.8005 -36.6599
rradius 25.5128
rwrist 13.6239
rhand 23.8484 10.1024
rfingers 7.12502
rthumb 48.1018 -12.0628
lclavicle 2.50376e-014 6.36111e-015
lhumerus 46.9591 -41.3924 52.337
lradius 67.4332
lwrist 83.316
lhand 11.8885 24.8948
lfingers 7.12502
lthumb 36.9153 50.9811
rfemur -24.3267 -26.828 -1.40443
rtibia 52.2392
rfoot -10.6417 -7.76265
rtoes -17.3574
lfemur -31.8566 35.0871 -5.31518
ltibia 61.7811
lfoot -15.4739 3.49326
ltoes 5.1831
449
root 4.56083 14.7061 -16.1874 -360.463 -49.2285 358.326
lowerback 17.6813 -2.69169 -1.8935
upperback 0.458883 -3.90527 0.767366
thorax -9.24227 -1.77791 2.89023
lowerneck -13.5628 -2.62319 3.3429
upperneck 18.9135 -4.57917 0.45585
head 8.03267 -1.93331 -0.901395
rclavicle -5.26779e-014 6.95746e-015
rhumerus 21.6418 -28.5618 -37.6844
rradius 25.3663
rwrist 14.1483
rhand 23.9277 10.2664
rfingers 7.12502
rthumb 48.1749 -11.8644
lclavicle -5.26779e-014 6.95746e-015
lhumerus 46.8509 -40.9213 52.1936
lradius 67.0515
lwrist 83.0606
lhand 12.533 25.2648
lfingers 7.12502
lthumb 37.5246 51.1918
rfemur -23.5089 -25.7776 -0.0780066
rtibia 51.2726
rfoot -10.3241 -8.95226
rtoes -19.3185
lfemur -31.5743 35.5881 -3.71277
ltibia 62.3328
lfoot -15.6247 2.83719
ltoes 6.2712
450
root 4.61468 14.7219 -16.1327 -360.594 -49.2675 358.519
lowerback 17.1429 -2.74758 -1.52668
upperback 0.673372 -3.95141 0.173682
thorax -8.7723 -1.84356 2.01245
lowerneck -13.9187 -2.60969 3.38763
upperneck 19.1862 -4.7505 1.15365
head 8.20674 -1.9337 -0.707132
rclavicle 1.72446e-014 1.47101e-014
rhumerus 20.729 -26.9071 -37.5676
rradius 26.1448
rwrist 10.9205
rhand 22.4455 6.55613
rfingers 7.12502
rthumb 46.8061 -16.1951
lclavicle 1.72446e-014 1.47101e-014
lhumerus 47.4782 -40.6521 50.398
lradius 67.7889
lwrist 83.7069
lhand 11.5667 25.0441
lfingers 7.12502
lthumb 36.6108 51.2082
rfemur -23.0945 -25.4561 -0.399945
rtibia 50.3626
rfoot -9.31221 -9.95278
rtoes -24.2288
lfemur -31.5899 35.7095 -4.2154
ltibia 62.3851
lfoot -15.905 2.76702
ltoes 7.12067
451
root 4.67955 14.7849 -16.0707 -360.575 -49.0524 358.585
lowerback 16.7258 -2.82144 -0.894078
upperback 0.821992 -3.9749 -0.426985
thorax -8.46482 -1.90063 0.9886
lowerneck -14.1662 -2.5699 4.48471
upperneck 19.1123 -4.91327 0.954399
head 8.1952 -1.9518 -0.973318
rclavicle 2.04251e-014 -1.59028e-015
rhumerus 21.3459 -30.0513 -39.4983
rradius 24.9847
rwrist 15.1233
rhand 23.5813 10.5181
rfingers 7.12502
rthumb 47.8556 -11.7619
lclavicle 2.04251e-014 -1.59028e-015
lhumerus 47.8131 -40.3835 49.761
lradius 67.5625
lwrist 82.8579
lhand 11.9971 25.1009
lfingers 7.12502
lthumb 37.018 51.1608
rfemur -22.2042 -24.9812 -0.648054
rtibia 48.7879
rfoot -8.89166 -10.4428
rtoes -23.744
lfemur -31.6234 35.2564 -4.9557
ltibia 61.9508
lfoot -16.1902 3.1085
ltoes 7.1803
452
root 4.7333 14.7847 -16.0222 -360.323 -49.0121 357.963
lowerback 16.5096 -2.92379 -0.182428
upperback 0.958308 -3.99826 -0.695475
thorax -8.26515 -1.94856 0.290807
lowerneck -13.7499 -2.61537 4.19272
upperneck 18.784 -5.0306 1.6901
head 8.03959 -1.96898 -0.683445
rclavicle -6.3959e-014 -8.34896e-015
rhumerus 20.6804 -28.391 -39.3477
rradius 25.5804
rwrist 12.1068
rhand 22.735 7.24171
rfingers 7.12502
rthumb 47.0739 -15.3919
lclavicle -6.3959e-014 -8.34896e-015
lhumerus 47.9187 -40.0601 48.759
lradius 67.8817
lwrist 83.3356
lhand 11.2977 24.98
lfingers 7.12502
lthumb 36.3561 51.2082
rfemur -21.4145 -24.2858 -0.505723
rtibia 47.8985
rfoot -8.84946 -11.141
rtoes -21.093
lfemur -31.6016 35.643 -4.60074
ltibia 62.2761
lfoot -16.2979 2.82453
ltoes 5.6639
453
root 4.79589 14.7482 -15.9804 -360.136 -48.7378 357.643
lowerback 16.2765 -2.91282 0.546127
upperback 1.16479 -3.888 -1.14396
thorax -7.9935 -1.93429 -0.641498
lowerneck -14.0562 -2.64591 4.87656
upperneck 18.7875 -5.28397 1.86066
head 8.08417 -2.02091 -0.771205
rclavicle -6.09275e-014 9.54166e-015
rhumerus 20.0737 -29.1876 -39.5926
rradius 25.5211
rwrist 12.4903
rhand 22.1854 7.26826
rfingers 7.12502
rthumb 46.5653 -15.5871
lclavicle -6.09275e-014 9.54166e-015
lhumerus 48.2913 -39.8209 48.7291
lradius 67.6014
lwrist 82.7431
lhand 12.0355 25.2002
lfingers 7.12502
lthumb 37.0543 51.2506
rfemur -21.0874 -23.918 -0.637563
rtibia 47.5581
rfoot -9.03732 -11.2998
rtoes -18.4452
lfemur -32.2024 35.5913 -4.75993
ltibia 62.9955
lfoot -16.6143 2.63267
ltoes 6.21283
454
root 4.85054 14.7773 -15.933 -360.192 -48.5408 357.808
lowerback 15.8142 -3.00052 0.651992
upperback 1.26304 -4.00981 -1.43795
thorax -7.66296 -2.00471 -1.01232
lowerneck -13.971 -2.50549 5.0007
upperneck 18.6484 -5.16356 2.12625
head 8.03141 -1.93469 -0.687734
rclavicle 1.3418e-014 -1.74931e-014
rhumerus 20.5825 -30.0373 -40.7482
rradius 25.1983
rwrist 13.5747
rhand 22.1461 7.03054
rfingers 7.12502
rthumb 46.5289 -15.8405
lclavicle 1.3418e-014 -1.74931e-014
lhumerus 48.4361 -39.2598 47.8124
lradius 67.9953
lwrist 82.9086
lhand 12.2567 25.0439
lfingers 7.12502
lthumb 37.2634 51.0398
rfemur -20.4673 -23.3957 -0.980622
rtibia 46.5074
rfoot -9.2494 -11.6062
rtoes -14.7993
lfemur -32.3796 35.2559 -5.43165
ltibia 62.8789
lfoot -16.8511 2.7889
ltoes 5.96691
